<?xml version="1.0" encoding="UTF-8"?>
<svg xmlns="http://www.w3.org/2000/svg" xmlns:inkscape="http://www.inkscape.org/namespaces/inkscape" width="50.8mm" height="128.5mm" viewBox="0 0 50.8 128.5" version="1.1">
  <rect width="50.8" height="128.5" fill="#101010"/>
  <path d="M16.214 7.200H17.412Q17.947 7.200 18.233 7.437Q18.519 7.674 18.519 8.113Q18.519 8.554 18.233 8.791Q17.947 9.029 17.412 9.029H16.936V10.000H16.214ZM16.936 7.723V8.505H17.335Q17.545 8.505 17.660 8.403Q17.774 8.301 17.774 8.113Q17.774 7.926 17.660 7.825Q17.545 7.723 17.335 7.723ZM19.374 7.200H20.096V8.267H21.162V7.200H21.884V10.000H21.162V8.813H20.096V10.000H19.374ZM24.634 9.490H23.505L23.326 10.000H22.601L23.638 7.200H24.499L25.536 10.000H24.810ZM23.685 8.970H24.452L24.069 7.856ZM28.201 7.288V7.881Q27.971 7.778 27.751 7.725Q27.532 7.673 27.337 7.673Q27.078 7.673 26.954 7.744Q26.830 7.815 26.830 7.965Q26.830 8.078 26.914 8.141Q26.997 8.203 27.217 8.248L27.524 8.310Q27.991 8.404 28.188 8.595Q28.385 8.787 28.385 9.139Q28.385 9.602 28.110 9.828Q27.836 10.054 27.271 10.054Q27.005 10.054 26.737 10.004Q26.468 9.953 26.200 9.854V9.244Q26.468 9.387 26.719 9.459Q26.969 9.531 27.202 9.531Q27.438 9.531 27.564 9.452Q27.689 9.374 27.689 9.227Q27.689 9.096 27.604 9.025Q27.519 8.954 27.264 8.897L26.984 8.835Q26.564 8.745 26.370 8.548Q26.176 8.352 26.176 8.018Q26.176 7.599 26.446 7.374Q26.716 7.149 27.222 7.149Q27.453 7.149 27.697 7.184Q27.941 7.219 28.201 7.288ZM29.365 7.200H31.313V7.746H30.087V8.267H31.240V8.813H30.087V9.454H31.354V10.000H29.365ZM33.360 8.442Q33.587 8.442 33.685 8.357Q33.784 8.273 33.784 8.080Q33.784 7.888 33.685 7.806Q33.587 7.723 33.360 7.723H33.056V8.442ZM33.056 8.940V10.000H32.334V7.200H33.437Q33.990 7.200 34.248 7.386Q34.506 7.571 34.506 7.973Q34.506 8.250 34.372 8.428Q34.238 8.607 33.967 8.691Q34.116 8.725 34.233 8.844Q34.350 8.963 34.470 9.205L34.862 10.000H34.093L33.752 9.304Q33.649 9.094 33.543 9.017Q33.437 8.940 33.260 8.940Z" fill="#b4b4b4"/>
  <rect x="6" y="101.000" width="38.800" height="0.28" fill="#3a3a3a"/>
  <path d="M7.985 15.787Q8.147 15.787 8.217 15.727Q8.287 15.666 8.287 15.528Q8.287 15.392 8.217 15.333Q8.147 15.274 7.985 15.274H7.768V15.787ZM7.768 16.143V16.900H7.252V14.900H8.040Q8.435 14.900 8.619 15.033Q8.803 15.165 8.803 15.452Q8.803 15.650 8.707 15.777Q8.612 15.905 8.419 15.965Q8.524 15.989 8.608 16.074Q8.692 16.159 8.778 16.332L9.058 16.900H8.508L8.265 16.403Q8.191 16.253 8.115 16.198Q8.040 16.143 7.914 16.143ZM10.825 16.536H10.019L9.891 16.900H9.373L10.114 14.900H10.728L11.469 16.900H10.951ZM10.147 16.165H10.695L10.422 15.369ZM11.743 14.900H13.586V15.290H12.923V16.900H12.407V15.290H11.743ZM14.100 14.900H15.492V15.290H14.615V15.662H15.439V16.052H14.615V16.510H15.521V16.900H14.100Z" fill="#9a9a9a"/>
  <path d="M24.114 16.627H23.509L23.414 16.900H23.025L23.581 15.400H24.042L24.597 16.900H24.209ZM23.606 16.348H24.017L23.812 15.752ZM24.803 15.400H26.185V15.692H25.688V16.900H25.301V15.692H24.803ZM26.391 15.400H27.774V15.692H27.277V16.900H26.890V15.692H26.391Z" fill="#6f6f6f"/>
  <path d="M38.735 16.818Q38.628 16.873 38.513 16.901Q38.397 16.929 38.271 16.929Q37.897 16.929 37.678 16.720Q37.459 16.510 37.459 16.152Q37.459 15.792 37.678 15.582Q37.897 15.373 38.271 15.373Q38.397 15.373 38.513 15.401Q38.628 15.429 38.735 15.484V15.795Q38.627 15.722 38.523 15.687Q38.418 15.653 38.303 15.653Q38.096 15.653 37.977 15.786Q37.859 15.918 37.859 16.152Q37.859 16.384 37.977 16.516Q38.096 16.649 38.303 16.649Q38.418 16.649 38.523 16.615Q38.627 16.581 38.735 16.507ZM39.061 15.400H39.450L39.848 16.507L40.245 15.400H40.634L40.078 16.900H39.617Z" fill="#6f6f6f"/>
  <path d="M7.768 32.290V33.510H7.952Q8.269 33.510 8.435 33.353Q8.602 33.197 8.602 32.898Q8.602 32.601 8.436 32.445Q8.270 32.290 7.952 32.290ZM7.252 31.900H7.796Q8.251 31.900 8.474 31.965Q8.697 32.030 8.857 32.185Q8.997 32.321 9.066 32.497Q9.134 32.674 9.134 32.898Q9.134 33.124 9.066 33.302Q8.997 33.479 8.857 33.615Q8.696 33.770 8.471 33.835Q8.246 33.900 7.796 33.900H7.252ZM9.776 31.900H11.168V32.290H10.292V32.662H11.116V33.052H10.292V33.510H11.197V33.900H9.776ZM11.897 31.900H12.753Q13.135 31.900 13.339 32.069Q13.543 32.239 13.543 32.552Q13.543 32.867 13.339 33.037Q13.135 33.206 12.753 33.206H12.413V33.900H11.897ZM12.413 32.274V32.832H12.698Q12.848 32.832 12.930 32.759Q13.012 32.686 13.012 32.552Q13.012 32.418 12.930 32.346Q12.848 32.274 12.698 32.274ZM13.916 31.900H15.759V32.290H15.096V33.900H14.581V32.290H13.916ZM16.273 31.900H16.789V32.662H17.550V31.900H18.065V33.900H17.550V33.052H16.789V33.900H16.273Z" fill="#9a9a9a"/>
  <path d="M7.252 48.900H8.644V49.290H7.768V49.662H8.591V50.052H7.768V50.900H7.252ZM9.373 48.900H10.765V49.290H9.889V49.662H10.712V50.052H9.889V50.510H10.794V50.900H9.373ZM11.494 48.900H12.886V49.290H12.010V49.662H12.833V50.052H12.010V50.510H12.915V50.900H11.494ZM14.131 49.290V50.510H14.315Q14.632 50.510 14.798 50.353Q14.965 50.197 14.965 49.898Q14.965 49.601 14.799 49.445Q14.633 49.290 14.315 49.290ZM13.615 48.900H14.159Q14.614 48.900 14.837 48.965Q15.060 49.030 15.220 49.185Q15.360 49.321 15.429 49.497Q15.497 49.674 15.497 49.898Q15.497 50.124 15.429 50.302Q15.360 50.479 15.220 50.615Q15.059 50.770 14.834 50.835Q14.609 50.900 14.159 50.900H13.615ZM16.940 49.674Q17.062 49.674 17.125 49.621Q17.188 49.567 17.188 49.463Q17.188 49.359 17.125 49.305Q17.062 49.251 16.940 49.251H16.655V49.674ZM16.958 50.549Q17.113 50.549 17.191 50.483Q17.270 50.418 17.270 50.285Q17.270 50.155 17.192 50.090Q17.114 50.025 16.958 50.025H16.655V50.549ZM17.437 49.830Q17.603 49.878 17.694 50.008Q17.785 50.138 17.785 50.327Q17.785 50.616 17.590 50.758Q17.394 50.900 16.995 50.900H16.139V48.900H16.913Q17.330 48.900 17.517 49.026Q17.704 49.152 17.704 49.429Q17.704 49.575 17.635 49.678Q17.567 49.780 17.437 49.830ZM19.691 50.536H18.884L18.757 50.900H18.239L18.979 48.900H19.594L20.335 50.900H19.817ZM19.013 50.165H19.561L19.287 49.369ZM22.433 50.790Q22.291 50.864 22.137 50.901Q21.983 50.939 21.816 50.939Q21.316 50.939 21.024 50.660Q20.732 50.380 20.732 49.902Q20.732 49.422 21.024 49.143Q21.316 48.864 21.816 48.864Q21.983 48.864 22.137 48.901Q22.291 48.939 22.433 49.013V49.426Q22.290 49.329 22.151 49.283Q22.011 49.238 21.857 49.238Q21.581 49.238 21.423 49.414Q21.265 49.591 21.265 49.902Q21.265 50.211 21.423 50.388Q21.581 50.565 21.857 50.565Q22.011 50.565 22.151 50.520Q22.290 50.474 22.433 50.376ZM23.107 48.900H23.623V49.630L24.367 48.900H24.965L24.002 49.847L25.065 50.900H24.419L23.623 50.112V50.900H23.107Z" fill="#9a9a9a"/>
  <path d="M7.252 65.900H7.908L8.364 66.970L8.822 65.900H9.477V67.900H8.989V66.437L8.528 67.516H8.202L7.741 66.437V67.900H7.252ZM10.229 65.900H10.745V67.900H10.229ZM12.611 66.879 13.305 67.900H12.768L12.300 67.217L11.837 67.900H11.297L11.991 66.879L11.324 65.900H11.862L12.300 66.544L12.737 65.900H13.278Z" fill="#9a9a9a"/>
  <path d="M8.644 82.963V83.386Q8.479 83.313 8.322 83.275Q8.165 83.238 8.026 83.238Q7.841 83.238 7.753 83.288Q7.664 83.339 7.664 83.447Q7.664 83.527 7.724 83.572Q7.784 83.617 7.940 83.649L8.160 83.693Q8.494 83.760 8.634 83.897Q8.775 84.033 8.775 84.285Q8.775 84.616 8.579 84.777Q8.382 84.939 7.979 84.939Q7.789 84.939 7.597 84.903Q7.406 84.867 7.214 84.796V84.360Q7.406 84.462 7.585 84.514Q7.764 84.565 7.930 84.565Q8.098 84.565 8.188 84.509Q8.278 84.453 8.278 84.348Q8.278 84.254 8.217 84.203Q8.156 84.153 7.974 84.112L7.774 84.068Q7.474 84.004 7.336 83.863Q7.197 83.723 7.197 83.484Q7.197 83.185 7.390 83.025Q7.583 82.864 7.944 82.864Q8.109 82.864 8.283 82.889Q8.457 82.913 8.644 82.963ZM9.236 82.900H11.079V83.290H10.416V84.900H9.901V83.290H9.236ZM12.807 84.536H12.000L11.873 84.900H11.355L12.095 82.900H12.710L13.451 84.900H12.933ZM12.129 84.165H12.677L12.403 83.369ZM15.761 84.751Q15.568 84.845 15.360 84.892Q15.153 84.939 14.932 84.939Q14.432 84.939 14.140 84.660Q13.848 84.380 13.848 83.902Q13.848 83.418 14.145 83.141Q14.443 82.864 14.960 82.864Q15.159 82.864 15.342 82.901Q15.525 82.939 15.687 83.013V83.426Q15.520 83.331 15.354 83.284Q15.189 83.238 15.023 83.238Q14.715 83.238 14.548 83.410Q14.381 83.582 14.381 83.902Q14.381 84.219 14.542 84.392Q14.703 84.565 14.999 84.565Q15.079 84.565 15.148 84.555Q15.217 84.545 15.272 84.524V84.135H14.957V83.789H15.761ZM16.462 82.900H17.854V83.290H16.978V83.662H17.801V84.052H16.978V84.510H17.883V84.900H16.462ZM19.975 82.963V83.386Q19.810 83.313 19.653 83.275Q19.496 83.238 19.357 83.238Q19.172 83.238 19.084 83.288Q18.995 83.339 18.995 83.447Q18.995 83.527 19.055 83.572Q19.115 83.617 19.271 83.649L19.491 83.693Q19.825 83.760 19.965 83.897Q20.106 84.033 20.106 84.285Q20.106 84.616 19.910 84.777Q19.713 84.939 19.310 84.939Q19.120 84.939 18.928 84.903Q18.737 84.867 18.545 84.796V84.360Q18.737 84.462 18.916 84.514Q19.095 84.565 19.261 84.565Q19.429 84.565 19.519 84.509Q19.609 84.453 19.609 84.348Q19.609 84.254 19.548 84.203Q19.487 84.153 19.305 84.112L19.105 84.068Q18.805 84.004 18.667 83.863Q18.528 83.723 18.528 83.484Q18.528 83.185 18.721 83.025Q18.914 82.864 19.275 82.864Q19.440 82.864 19.614 82.889Q19.788 82.913 19.975 82.963Z" fill="#9a9a9a"/>
  <path d="M16.469 89.674Q16.367 89.674 16.313 89.729Q16.259 89.784 16.259 89.887Q16.259 89.991 16.313 90.045Q16.367 90.100 16.469 90.100Q16.569 90.100 16.622 90.045Q16.676 89.991 16.676 89.887Q16.676 89.783 16.622 89.728Q16.569 89.674 16.469 89.674ZM16.205 89.555Q16.078 89.516 16.013 89.436Q15.948 89.357 15.948 89.238Q15.948 89.060 16.080 88.968Q16.213 88.875 16.469 88.875Q16.723 88.875 16.855 88.967Q16.987 89.059 16.987 89.238Q16.987 89.357 16.922 89.436Q16.857 89.516 16.729 89.555Q16.872 89.594 16.944 89.683Q17.017 89.771 17.017 89.906Q17.017 90.114 16.879 90.221Q16.741 90.327 16.469 90.327Q16.196 90.327 16.056 90.221Q15.917 90.114 15.917 89.906Q15.917 89.771 15.990 89.683Q16.063 89.594 16.205 89.555ZM16.289 89.274Q16.289 89.358 16.336 89.403Q16.382 89.448 16.469 89.448Q16.553 89.448 16.599 89.403Q16.645 89.358 16.645 89.274Q16.645 89.191 16.599 89.146Q16.553 89.102 16.469 89.102Q16.382 89.102 16.336 89.147Q16.289 89.192 16.289 89.274Z" fill="#6f6f6f"/>
  <path d="M16.495 92.009Q16.400 92.009 16.353 92.070Q16.305 92.132 16.305 92.255Q16.305 92.377 16.353 92.439Q16.400 92.500 16.495 92.500Q16.590 92.500 16.638 92.439Q16.685 92.377 16.685 92.255Q16.685 92.132 16.638 92.070Q16.590 92.009 16.495 92.009ZM16.941 91.337V91.595Q16.852 91.553 16.773 91.533Q16.695 91.513 16.620 91.513Q16.458 91.513 16.368 91.602Q16.278 91.692 16.263 91.868Q16.325 91.822 16.397 91.799Q16.470 91.776 16.555 91.776Q16.770 91.776 16.901 91.902Q17.033 92.028 17.033 92.231Q17.033 92.456 16.886 92.592Q16.739 92.727 16.491 92.727Q16.218 92.727 16.069 92.543Q15.919 92.359 15.919 92.020Q15.919 91.673 16.094 91.475Q16.269 91.277 16.574 91.277Q16.670 91.277 16.761 91.292Q16.852 91.307 16.941 91.337Z" fill="#6f6f6f"/>
  <path d="M16.507 93.997 16.111 94.583H16.507ZM16.447 93.700H16.848V94.583H17.048V94.845H16.848V95.100H16.507V94.845H15.886V94.535Z" fill="#6f6f6f"/>
  <path d="M12.633 104.885H13.097V106.685H12.633ZM13.774 104.885H14.292L14.947 106.120V104.885H15.387V106.685H14.869L14.214 105.450V106.685H13.774Z" fill="#9a9a9a"/>
  <path d="M34.723 105.189Q34.510 105.189 34.393 105.346Q34.276 105.502 34.276 105.787Q34.276 106.070 34.393 106.227Q34.510 106.384 34.723 106.384Q34.936 106.384 35.053 106.227Q35.170 106.070 35.170 105.787Q35.170 105.502 35.053 105.346Q34.936 105.189 34.723 105.189ZM34.723 104.852Q35.157 104.852 35.403 105.101Q35.648 105.349 35.648 105.787Q35.648 106.223 35.403 106.472Q35.157 106.720 34.723 106.720Q34.290 106.720 34.043 106.472Q33.797 106.223 33.797 105.787Q33.797 105.349 34.043 105.101Q34.290 104.852 34.723 104.852ZM36.222 104.885H36.686V105.964Q36.686 106.187 36.759 106.283Q36.832 106.379 36.997 106.379Q37.163 106.379 37.236 106.283Q37.309 106.187 37.309 105.964V104.885H37.773V105.964Q37.773 106.346 37.581 106.533Q37.390 106.720 36.997 106.720Q36.605 106.720 36.413 106.533Q36.222 106.346 36.222 105.964ZM38.234 104.885H39.893V105.236H39.296V106.685H38.832V105.236H38.234Z" fill="#9a9a9a"/>
  <path d="M7.879 119.315H8.240V120.442H8.874V120.715H7.879Z" fill="#6f6f6f"/>
  <path d="M19.655 119.936Q19.768 119.936 19.818 119.894Q19.867 119.851 19.867 119.755Q19.867 119.659 19.818 119.618Q19.768 119.577 19.655 119.577H19.503V119.936ZM19.503 120.185V120.715H19.142V119.315H19.693Q19.970 119.315 20.099 119.408Q20.228 119.501 20.228 119.701Q20.228 119.840 20.161 119.929Q20.094 120.018 19.959 120.060Q20.033 120.077 20.091 120.137Q20.150 120.196 20.210 120.317L20.406 120.715H20.021L19.851 120.367Q19.799 120.262 19.746 120.224Q19.693 120.185 19.605 120.185Z" fill="#6f6f6f"/>
  <path d="M30.659 119.315H31.020V120.442H31.654V120.715H30.659Z" fill="#6f6f6f"/>
  <path d="M42.435 119.936Q42.548 119.936 42.598 119.894Q42.647 119.851 42.647 119.755Q42.647 119.659 42.598 119.618Q42.548 119.577 42.435 119.577H42.283V119.936ZM42.283 120.185V120.715H41.922V119.315H42.473Q42.750 119.315 42.879 119.408Q43.008 119.501 43.008 119.701Q43.008 119.840 42.941 119.929Q42.874 120.018 42.739 120.060Q42.813 120.077 42.871 120.137Q42.930 120.196 42.990 120.317L43.186 120.715H42.801L42.631 120.367Q42.579 120.262 42.526 120.224Q42.473 120.185 42.385 120.185Z" fill="#6f6f6f"/>
  <path d="M19.598 126.400 19.006 124.850H19.225L19.716 126.155L20.208 124.850H20.426L19.836 126.400ZM20.844 124.850H21.824V125.026H21.054V125.485H21.792V125.662H21.054V126.224H21.843V126.400H20.844ZM23.114 125.673Q23.181 125.696 23.245 125.771Q23.309 125.846 23.373 125.976L23.586 126.400H23.361L23.163 126.002Q23.086 125.847 23.014 125.796Q22.941 125.745 22.817 125.745H22.588V126.400H22.379V124.850H22.852Q23.118 124.850 23.249 124.961Q23.380 125.072 23.380 125.296Q23.380 125.443 23.312 125.539Q23.244 125.636 23.114 125.673ZM22.588 125.022V125.573H22.852Q23.004 125.573 23.081 125.502Q23.158 125.432 23.158 125.296Q23.158 125.160 23.081 125.091Q23.004 125.022 22.852 125.022ZM24.047 124.850H24.257V126.400H24.047ZM25.076 125.022V126.228H25.329Q25.650 126.228 25.799 126.082Q25.948 125.937 25.948 125.623Q25.948 125.312 25.799 125.167Q25.650 125.022 25.329 125.022ZM24.866 124.850H25.297Q25.747 124.850 25.958 125.037Q26.169 125.225 26.169 125.623Q26.169 126.024 25.957 126.212Q25.745 126.400 25.297 126.400H24.866ZM26.694 124.850H26.904V126.400H26.694ZM28.674 124.969V125.191Q28.568 125.092 28.448 125.043Q28.328 124.994 28.193 124.994Q27.927 124.994 27.786 125.157Q27.645 125.319 27.645 125.627Q27.645 125.933 27.786 126.095Q27.927 126.258 28.193 126.258Q28.328 126.258 28.448 126.209Q28.568 126.160 28.674 126.062V126.281Q28.563 126.355 28.440 126.393Q28.317 126.430 28.180 126.430Q27.828 126.430 27.626 126.215Q27.424 125.999 27.424 125.627Q27.424 125.253 27.626 125.037Q27.828 124.822 28.180 124.822Q28.320 124.822 28.443 124.859Q28.566 124.896 28.674 124.969ZM29.707 125.057 29.422 125.828H29.992ZM29.588 124.850H29.826L30.417 126.400H30.199L30.058 126.002H29.359L29.218 126.400H28.997ZM30.835 124.850H31.044V126.224H31.799V126.400H30.835Z" fill="#6f6f6f"/>
  <g inkscape:groupmode="layer" inkscape:label="components" style="display:none">
    <circle cx="11.800" cy="24.000" r="1" fill="#ff0000"/>
    <circle cx="25.400" cy="24.000" r="1" fill="#ff0000"/>
    <circle cx="39.000" cy="24.000" r="1" fill="#00ff00"/>
    <circle cx="11.800" cy="41.000" r="1" fill="#ff0000"/>
    <circle cx="25.400" cy="41.000" r="1" fill="#ff0000"/>
    <circle cx="39.000" cy="41.000" r="1" fill="#00ff00"/>
    <circle cx="11.800" cy="58.000" r="1" fill="#ff0000"/>
    <circle cx="25.400" cy="58.000" r="1" fill="#ff0000"/>
    <circle cx="39.000" cy="58.000" r="1" fill="#00ff00"/>
    <circle cx="11.800" cy="75.000" r="1" fill="#ff0000"/>
    <circle cx="25.400" cy="75.000" r="1" fill="#ff0000"/>
    <circle cx="39.000" cy="75.000" r="1" fill="#00ff00"/>
    <circle cx="11.800" cy="92.000" r="1" fill="#ff0000"/>
    <circle cx="8.315" cy="113.000" r="1" fill="#00ff00"/>
    <circle cx="19.705" cy="113.000" r="1" fill="#00ff00"/>
    <circle cx="31.095" cy="113.000" r="1" fill="#0000ff"/>
    <circle cx="42.485" cy="113.000" r="1" fill="#0000ff"/>
  </g>
</svg>
